<!DOCTYPE svg PUBLIC "-//W3C//DTD SVG 1.1//EN" "http://www.w3.org/Graphics/SVG/1.1/DTD/svg11.dtd">
<!-- Uploaded to: SVG Repo, www.svgrepo.com, Transformed by: SVG Repo Mixer Tools -->
<svg fill="#F04B3E" height="800px" width="800px" version="1.1" id="Layer_1" xmlns="http://www.w3.org/2000/svg" xmlns:xlink="http://www.w3.org/1999/xlink" viewBox="0 0 488.9 488.9" xml:space="preserve">
<g id="SVGRepo_bgCarrier" stroke-width="0"/>
<g id="SVGRepo_tracerCarrier" stroke-linecap="round" stroke-linejoin="round"/>
<g id="SVGRepo_iconCarrier"> <g> <path d="M412.9,0h-337C34.3,0,0,34.3,0,75.9V413c0,41.6,34.3,75.9,75.9,75.9H413c41.6,0,75.9-34.3,75.9-75.9V76 C488.9,34.4,454.5,0,412.9,0z M448.3,413c0,19.8-15.6,35.4-35.4,35.4h-337c-19.8,0-35.4-15.6-35.4-35.4V265.3h72.8 c6.2,0,12.5-3.1,16.6-8.3l56.2-74.9v193.5c0,22.9,31.4,25.7,37.5,9.4l68.7-147.7l21.8,25c4.2,5.2,9.4,7.3,15.6,7.3h67.6 c11.4,0,20.8-9.4,20.8-20.8s-9.4-20.8-20.8-20.8H339l-36.4-41.6c-5.9-7-24.3-12-34.3,5.2l-42.7,91.5V120.7 c1.1-14-19.8-32.1-36.4-12.5l-86.3,115.5H40.5V76c0-19.8,15.6-35.4,35.4-35.4H413c19.8,0,35.4,15.6,35.4,35.4v337H448.3z"/> </g> </g>
</svg>